<?xml version="1.0" standalone="no"?>
<!DOCTYPE svg PUBLIC "-//W3C//DTD SVG 20010904//EN"
 "http://www.w3.org/TR/2001/REC-SVG-20010904/DTD/svg10.dtd">
<svg version="1.0" xmlns="http://www.w3.org/2000/svg"
 width="1667.000000pt" height="1068.000000pt" viewBox="0 0 1667.000000 1068.000000"
 preserveAspectRatio="xMidYMid meet">
<metadata>
Created by potrace 1.16, written by Peter Selinger 2001-2019
</metadata>
<g transform="translate(0.000000,1068.000000) scale(0.100000,-0.100000)"
fill="#000000" stroke="none">
<path d="M14517 10124 c-4 -4 -7 -263 -7 -577 0 -554 -1 -570 -20 -594 -13
-17 -20 -41 -20 -69 0 -42 0 -43 -37 -46 -44 -3 -60 -35 -24 -45 18 -4 21 -13
21 -54 0 -44 -3 -50 -30 -64 -203 -105 -212 -395 -14 -511 33 -19 44 -32 44
-50 0 -21 -5 -24 -35 -24 -34 0 -35 -1 -35 -39 0 -37 2 -40 28 -38 l27 2 -2
-315 c-3 -668 -14 -1949 -18 -2245 -2 -170 -7 -579 -11 -907 l-7 -598 -223 0
-224 0 0 1625 0 1625 -80 0 -79 0 -3 138 -3 137 -58 0 -57 0 0 68 0 67 -31 0
c-123 0 -420 -123 -579 -240 -75 -56 -205 -187 -243 -245 l-26 -40 -5 -335
c-3 -184 -8 -510 -11 -725 -3 -214 -7 -482 -10 -595 -3 -113 -8 -452 -11 -755
-3 -302 -7 -593 -10 -645 -2 -52 -4 -186 -4 -297 l0 -203 -80 0 c-57 0 -80 4
-80 13 1 1424 -2 2941 -6 2952 -5 11 -22 15 -70 15 l-63 0 -3 145 -3 145 -70
-50 c-38 -27 -73 -49 -77 -50 -5 0 -8 81 -8 180 l0 180 -35 -3 -35 -2 0 -206
0 -205 -47 -34 c-27 -18 -126 -87 -220 -153 l-173 -119 0 -1119 0 -1119 -190
0 -190 0 0 -355 0 -355 -297 2 -298 3 -3 63 -3 62 -34 0 -35 0 3 305 c1 168
-2 306 -6 308 -5 1 3 33 18 69 l27 67 56 3 c50 3 57 6 56 23 -3 56 -2 55 -54
55 l-50 0 0 105 0 105 43 0 c48 1 37 -11 150 166 73 114 77 124 77 177 l0 57
-191 2 -192 3 0 98 c1 91 3 103 38 182 l38 85 56 0 57 0 -1 33 -1 32 -797 3
-797 2 0 70 0 70 -119 0 -120 0 15 28 c17 33 18 111 3 146 -9 18 -9 40 -1 78
8 42 7 60 -4 87 -17 41 -17 41 -1 41 7 0 22 6 32 14 17 12 18 17 6 42 -10 24
-10 32 6 61 13 25 15 38 7 51 -14 22 -72 52 -90 45 -19 -7 -67 -88 -104 -174
-34 -81 -41 -89 -85 -89 -40 0 -55 -16 -55 -57 0 -29 -3 -33 -37 -39 -32 -6
-38 -4 -57 22 -56 80 -141 137 -225 150 -40 6 -41 7 -41 47 0 34 6 45 33 68
28 23 32 33 32 74 0 41 -4 51 -32 74 -18 15 -33 32 -33 38 0 6 43 53 95 105
52 51 95 101 95 111 0 21 -35 57 -56 57 -9 0 -49 -31 -88 -70 l-72 -70 -64 65
c-74 74 -91 83 -125 61 -43 -29 -32 -54 70 -154 52 -52 95 -98 95 -104 0 -5
-16 -24 -35 -42 -49 -47 -49 -95 0 -142 28 -26 35 -40 35 -71 l0 -39 -57 -12
c-84 -17 -161 -72 -223 -159 -13 -17 -20 -19 -47 -11 -28 7 -33 13 -33 38 0
38 -24 60 -65 60 -39 0 -38 -1 -87 108 -66 148 -113 185 -166 129 -25 -27 -28
-54 -7 -81 10 -13 11 -24 5 -37 -17 -31 -11 -50 19 -60 l29 -10 -15 -37 c-12
-30 -13 -46 -4 -87 9 -41 8 -58 -5 -95 -17 -48 -12 -100 12 -137 l14 -23 -120
0 -120 0 0 -70 0 -70 -800 0 -800 0 0 -35 0 -35 58 0 57 0 38 -85 c35 -80 37
-92 37 -185 l0 -100 -190 0 c-212 0 -192 8 -193 -75 -1 -34 13 -61 92 -183
l93 -142 44 0 44 0 0 -105 0 -105 -55 0 -55 0 0 -40 0 -40 58 0 57 0 26 -67
c15 -38 23 -69 18 -71 -5 -2 -9 -78 -9 -168 l0 -164 -205 0 -205 0 0 354 0
354 -284 2 c-157 0 -296 -2 -310 -6 l-26 -6 0 -444 0 -444 -110 0 -109 0 -3
147 -3 148 -95 2 c-52 1 -101 2 -107 2 -10 1 -13 65 -13 286 l0 285 -25 0 -25
0 0 313 0 313 28 -1 c23 0 27 4 30 33 2 21 -1 32 -10 33 -7 1 -20 2 -28 3 -11
1 -16 17 -18 64 l-3 62 -139 0 -140 0 0 -60 c0 -55 -2 -60 -22 -61 -52 -3 -53
-3 -53 -39 0 -28 5 -35 20 -36 60 -3 55 22 55 -284 l0 -280 -55 0 -55 0 0 205
c0 197 -1 205 -20 205 -18 0 -20 8 -22 102 l-3 103 -47 3 -48 3 0 764 0 764
-22 3 c-20 3 -23 10 -26 61 -3 56 -4 57 -32 57 l-30 0 0 80 c0 79 0 80 -25 80
l-25 0 0 215 0 215 -94 0 -93 0 -82 -95 -82 -95 -104 0 -105 0 0 -80 0 -80
-50 0 -50 0 0 -170 0 -170 -40 0 -40 0 0 -666 0 -667 -45 -83 -45 -82 0 -162
0 -161 -45 3 -45 3 0 1222 0 1222 -186 136 -186 137 -82 -31 c-44 -17 -193
-75 -331 -130 l-250 -98 -3 -767 -2 -766 -170 0 -170 0 0 -580 0 -580 -115 0
-115 0 0 930 0 930 -277 -2 -278 -3 -3 -412 -2 -413 -330 0 -330 0 0 -2845 0
-2845 8335 0 8335 0 0 2085 0 2085 -235 0 -235 0 0 735 0 735 -360 0 -360 0 0
-390 0 -390 -405 0 -405 0 0 323 c-1 177 -3 421 -5 542 -2 121 -6 549 -10 950
-3 402 -8 868 -11 1036 l-5 305 30 -2 c30 -2 31 0 31 37 0 38 -1 39 -35 39
-31 0 -35 3 -35 25 0 19 9 29 39 44 52 27 116 102 135 158 45 132 -9 278 -130
349 -43 25 -44 28 -44 75 0 42 3 49 20 49 15 0 20 7 20 25 0 23 -4 25 -40 25
l-40 0 0 44 c0 28 -7 52 -20 69 -19 24 -20 43 -22 598 -3 550 -5 598 -31 573z
m-6516 -4390 c3 -2 0 -25 -6 -51 -7 -26 -11 -69 -9 -95 l4 -48 -51 0 c-45 0
-50 2 -44 18 4 9 14 57 23 105 l16 88 30 -7 c17 -3 34 -8 37 -10z m733 -6 c2
-13 13 -60 23 -105 l19 -83 -47 0 -47 0 -5 78 c-2 42 -8 87 -12 99 -6 17 -2
22 17 26 44 8 48 7 52 -15z m-949 -70 c41 -89 38 -95 -65 -115 -29 -5 -33 7
-33 89 0 54 15 78 50 78 19 0 29 -10 48 -52z m1185 32 c10 -18 13 -72 8 -127
-3 -26 -11 -28 -73 -11 -40 11 -45 15 -45 41 0 44 47 117 76 117 13 0 28 -9
34 -20z m-2150 -1920 l0 -680 -114 0 c-121 0 -126 2 -120 50 1 14 3 314 3 668
l1 642 115 0 115 0 0 -680z m540 0 l0 -680 -115 0 -115 0 0 680 0 680 115 0
115 0 0 -680z m550 0 l0 -680 -120 0 -120 0 0 680 0 680 120 0 120 0 0 -680z
m540 0 l0 -680 -114 0 -114 0 -7 43 c-4 23 -6 329 -4 679 l4 638 118 0 117 0
0 -680z m550 0 l-1 -680 -120 0 -119 0 0 680 0 680 120 0 121 0 -1 -680z m540
0 l0 -680 -115 0 c-85 0 -115 3 -115 13 0 6 0 291 0 632 -1 341 -1 641 -1 668
l1 47 115 0 115 0 0 -680z m540 0 l0 -680 -115 0 -115 0 0 680 0 680 115 0
115 0 0 -680z"/>
<path d="M5465 8403 c-59 -8 -155 -45 -212 -82 -115 -75 -203 -198 -238 -336
-33 -128 -14 -228 74 -410 93 -190 283 -438 343 -447 19 -3 22 -9 22 -53 0
-49 -1 -50 -32 -53 l-32 -3 0 -105 0 -104 154 0 c179 0 166 -10 166 128 l0 82
-35 0 -35 0 0 55 c0 51 2 55 24 55 54 0 239 236 340 433 87 171 109 279 82
404 -24 114 -68 196 -151 278 -125 126 -291 182 -470 158z"/>
</g>
</svg>
